<svg width="12" height="12" viewBox="0 0 12 12" fill="none" xmlns="http://www.w3.org/2000/svg">
<path d="M6 10.5L0 4.4875C0.775 3.7125 1.673 3.10417 2.694 2.6625C3.71467 2.22083 4.81667 2 6 2C7.18333 2 8.2855 2.22083 9.3065 2.6625C10.3272 3.10417 11.225 3.7125 12 4.4875L11.3 5.2C10.625 4.525 9.83333 3.98967 8.925 3.594C8.01667 3.198 7.04167 3 6 3C5.14167 3 4.32917 3.13533 3.5625 3.406C2.79583 3.677 2.09583 4.05417 1.4625 4.5375L6.7 9.7875L6 10.5ZM10.8 10L9.5125 8.725C9.3625 8.81667 9.20417 8.8855 9.0375 8.9315C8.87083 8.97717 8.69167 9 8.5 9C7.93333 9 7.45833 8.80833 7.075 8.425C6.69167 8.04167 6.5 7.56667 6.5 7C6.5 6.43333 6.69167 5.95833 7.075 5.575C7.45833 5.19167 7.93333 5 8.5 5C9.06667 5 9.54167 5.19167 9.925 5.575C10.3083 5.95833 10.5 6.43333 10.5 7C10.5 7.19167 10.4772 7.37083 10.4315 7.5375C10.3855 7.70417 10.3167 7.8625 10.225 8.0125L11.5 9.3L10.8 10ZM8.5 8C8.78333 8 9.02083 7.90417 9.2125 7.7125C9.40417 7.52083 9.5 7.28333 9.5 7C9.5 6.71667 9.40417 6.47917 9.2125 6.2875C9.02083 6.09583 8.78333 6 8.5 6C8.21667 6 7.97917 6.09583 7.7875 6.2875C7.59583 6.47917 7.5 6.71667 7.5 7C7.5 7.28333 7.59583 7.52083 7.7875 7.7125C7.97917 7.90417 8.21667 8 8.5 8Z" fill="#333333"/>
</svg>
